<svg width="96" height="87" viewBox="0 0 96 87" fill="none" xmlns="http://www.w3.org/2000/svg">
<rect x="92.1211" y="34.6636" width="2.96469" height="2.96469" rx="0.621854" transform="rotate(46.5312 92.1211 34.6636)" fill="#6562FE"/>
<rect x="89.2676" y="15.386" width="4.40712" height="4.40712" rx="0.621854" transform="rotate(46.5312 89.2676 15.386)" fill="#6562FE"/>
<rect x="45.1133" y="2.32715" width="4.40712" height="4.40712" rx="0.621854" transform="rotate(46.5312 45.1133 2.32715)" fill="#6562FE"/>
<rect x="92.375" y="48.3442" width="4.40712" height="4.40712" rx="0.621854" transform="rotate(46.5312 92.375 48.3442)" fill="#6562FE"/>
<rect x="76.4824" width="2.5663" height="2.5663" rx="0.621854" transform="rotate(33.7232 76.4824 0)" fill="#6562FE"/>
<path d="M40.6788 31.2433L60.5781 54.2519M36.3258 46.1678L46.5864 57.983" stroke="#6562FE" stroke-width="6.21854" stroke-linecap="round"/>
<path d="M74.8094 46.6015L47.4376 17.6037C46.4806 16.5898 44.7901 16.9457 44.3232 18.2595L28.3337 63.2468C27.804 64.7372 29.2529 66.1691 30.737 65.6219L74.0982 49.6324C75.3536 49.1695 75.7279 47.5745 74.8094 46.6015Z" stroke="#6562FE" stroke-width="6.21854" stroke-linecap="round"/>
<path d="M84.2129 9.78931C79.8752 9.78931 75.9331 12.4858 74.9695 16.8219C74.1914 20.3233 75.3261 26.5989 69.8047 26.5989" stroke="#6562FE" stroke-width="3.10927" stroke-linecap="round"/>
<line x1="64.6705" y1="18.7584" x2="65.1952" y2="1.96682" stroke="#6562FE" stroke-width="3.10927" stroke-linecap="round"/>
<line x1="88.6018" y1="30.284" x2="76.7212" y2="32.7591" stroke="#6562FE" stroke-width="3.10927" stroke-linecap="round"/>
<line x1="57.6487" y1="7.11477" x2="57.285" y2="11.4785" stroke="#6562FE" stroke-width="3.10927" stroke-linecap="round"/>
<line x1="82.5391" y1="39.4882" x2="86.5489" y2="41.3108" stroke="#6562FE" stroke-width="3.10927" stroke-linecap="round"/>
<rect x="66" y="78" width="8.91589" height="8.91589" rx="2" fill="#D2D1FF"/>
<rect y="10" width="19" height="19" rx="2.97897" fill="#D2D1FF"/>
</svg>
