<svg width="32" height="29" viewBox="0 0 32 29" fill="none" xmlns="http://www.w3.org/2000/svg">
<g id="RAISED ICON">
<g id="Rectangle 54">
<mask id="path-1-inside-1_399_5986" fill="white">
<path d="M0 8.5C0 7.11929 1.11929 6 2.5 6H29.5C30.8807 6 32 7.11929 32 8.5V12.5C32 13.3284 31.3284 14 30.5 14H1.5C0.671573 14 0 13.3284 0 12.5V8.5Z"/>
</mask>
<path d="M0 8.5C0 7.11929 1.11929 6 2.5 6H29.5C30.8807 6 32 7.11929 32 8.5V12.5C32 13.3284 31.3284 14 30.5 14H1.5C0.671573 14 0 13.3284 0 12.5V8.5Z" stroke="#6562FE" stroke-width="5" stroke-linejoin="round" mask="url(#path-1-inside-1_399_5986)"/>
</g>
<path id="Rectangle 55" d="M3.5 12.5H28.5V26C28.5 26.8284 27.8284 27.5 27 27.5H5C4.17157 27.5 3.5 26.8284 3.5 26V12.5Z" stroke="#6562FE" stroke-width="3" stroke-linejoin="round"/>
<path id="Vector 12" d="M16 8C16 8.35349 16 20.814 16 27" stroke="#6562FE" stroke-width="3" stroke-linecap="round"/>
<path id="Union" fill-rule="evenodd" clip-rule="evenodd" d="M12 5.5C12.8284 5.5 13.5 4.82843 13.5 4C13.5 3.17157 12.8284 2.5 12 2.5C11.1716 2.5 10.5 3.17157 10.5 4C10.5 4.82843 11.1716 5.5 12 5.5ZM16.8773 6.5H15.1227C14.3896 7.41446 13.2632 8 12 8C9.79086 8 8 6.20914 8 4C8 1.79086 9.79086 0 12 0C14.1851 0 15.961 1.7521 15.9994 3.92803L16.0006 3.9291C16.0384 1.75267 17.8145 0 20 0C22.2091 0 24 1.79086 24 4C24 6.20914 22.2091 8 20 8C18.7368 8 17.6104 7.41446 16.8773 6.5ZM20 5.5C20.8284 5.5 21.5 4.82843 21.5 4C21.5 3.17157 20.8284 2.5 20 2.5C19.1716 2.5 18.5 3.17157 18.5 4C18.5 4.82843 19.1716 5.5 20 5.5Z" fill="#6562FE"/>
</g>
</svg>
