<svg width="23" height="29" viewBox="0 0 23 29" fill="none" xmlns="http://www.w3.org/2000/svg">
<g id="PLAYERS ICON">
<path id="Vector 15" d="M7.43024 18.2412L8.48304 12.7141C8.68001 11.68 8.77849 11.1629 9.064 10.7881C9.24946 10.5446 9.48833 10.347 9.7622 10.2103C10.1838 10 10.7102 10 11.7629 10C12.8065 10 13.3283 10 13.7477 10.2076C14.0202 10.3425 14.2583 10.5377 14.444 10.7784C14.7298 11.1489 14.8321 11.6606 15.0368 12.684L16.0427 17.7133C16.2585 18.7924 16.3664 19.332 16.7041 19.7278C16.7318 19.7602 16.7605 19.7918 16.7902 19.8224C17.1525 20.1957 17.6795 20.3539 18.7336 20.6701L19.2526 20.8258C20.039 21.0617 20.4322 21.1796 20.7269 21.4086C21.0137 21.6314 21.2344 21.928 21.3654 22.2668C21.5 22.6149 21.5 23.0254 21.5 23.8464C21.5 24.9228 21.5 25.4609 21.2983 25.8754C21.1025 26.2775 20.7775 26.6025 20.3754 26.7983C19.9609 27 19.4228 27 18.3464 27H5.0223C4.06948 27 3.59306 27 3.21848 26.841C2.74138 26.6385 2.36155 26.2586 2.15902 25.7815C2 25.4069 2 24.9305 2 23.9777C2 23.1825 2 22.785 2.12195 22.4519C2.27731 22.0276 2.57177 21.6684 2.95735 21.4329C3.26 21.248 3.64986 21.17 4.42958 21.0141L4.74528 20.9509L4.74529 20.9509C5.64628 20.7707 6.09678 20.6806 6.44392 20.4346C6.63293 20.3006 6.79722 20.1348 6.92947 19.9445C7.17235 19.5952 7.25831 19.1439 7.43024 18.2412L7.43024 18.2412Z" stroke="#6562FE" stroke-width="2.5" stroke-linecap="round"/>
<path id="Vector 16" d="M7 20H17" stroke="#6562FE" stroke-width="2.5" stroke-linecap="round"/>
<circle id="Ellipse 16" cx="12" cy="5" r="3.75" stroke="#6562FE" stroke-width="2.5"/>
<path id="Vector 14" d="M6 10L17 10" stroke="#6562FE" stroke-width="3" stroke-linecap="round"/>
</g>
</svg>
