<svg width="109" height="75" viewBox="0 0 109 75" fill="none" xmlns="http://www.w3.org/2000/svg">
<path d="M90.4 -6.00919e-07C96.8 -4.14132e-08 101.5 1.6 104.5 4.80001C107.3 8.2 108.7 12.5 108.7 17.7L108.7 21.9C108.7 30.1 106.3 39.1 101.5 48.9C96.7 58.9 90 67.6 81.4 75L61.3 75C67.3 68.6 72.2 62.5 76 56.7C79.6 51.1 82.2 44.8 83.8 37.8C79.8 36.8 76.9 34.9 75.1 32.1C73.1 29.3 72.1 25.9 72.1 21.9L72.1 17.7C72.1 12.5 73.6 8.2 76.6 4.80001C79.4 1.6 84 -1.16042e-06 90.4 -6.00919e-07ZM29.8 -5.89874e-06C36.2 -5.33923e-06 40.9 1.6 43.9 4.80001C46.7 8.2 48.1 12.5 48.1 17.7L48.1 21.9C48.1 30.1 45.7 39.1 40.9 48.9C36.1 58.9 29.4 67.6 20.8 75L0.7 75C6.7 68.6 11.6 62.5 15.4 56.7C19 51.1 21.6 44.8 23.2 37.8C19.2 36.8 16.3 34.9 14.5 32.1C12.5 29.3 11.5 25.9 11.5 21.9L11.5 17.7C11.5 12.5 13 8.19999 16 4.8C18.8 1.6 23.4 -6.45825e-06 29.8 -5.89874e-06Z" fill="#FFFEF0"/>
</svg>
