<svg width="30" height="30" viewBox="0 0 30 30" fill="none" xmlns="http://www.w3.org/2000/svg">
<path id="BELIEVERS ICON" d="M14.5493 2.40388C14.7308 2.02579 15.2692 2.02579 15.4507 2.40388L18.479 8.71018C18.9813 9.75624 19.9694 10.4853 21.1171 10.6567L27.977 11.6812C28.3829 11.7418 28.5469 12.2386 28.257 12.529L29.1065 13.3769L28.257 12.529L23.2244 17.5709C22.4264 18.3703 22.0633 19.5056 22.2492 20.6196L23.4277 27.6817C23.4962 28.0921 23.0629 28.4017 22.6969 28.2039L16.6638 24.9441C15.6255 24.383 14.3745 24.383 13.3362 24.9441L7.30313 28.2039C6.93713 28.4017 6.50378 28.0921 6.57226 27.6817L7.75077 20.6196C7.93667 19.5056 7.57356 18.3703 6.77565 17.5709L1.74296 12.529C1.45306 12.2386 1.61713 11.7418 2.02298 11.6812L8.88292 10.6567C10.0306 10.4853 11.0187 9.75624 11.521 8.71018L14.5493 2.40388Z" stroke="#6562FE" stroke-width="3" stroke-miterlimit="2" stroke-linejoin="round"/>
</svg>
